<svg width="354" height="13" viewBox="0 0 354 13" fill="none" xmlns="http://www.w3.org/2000/svg">
<path d="M334.121 8.52542C323.822 8.0467 314.532 8.12446 304.783 8.11375C285.755 8.08961 266.733 6.2337 247.705 6.29807C205.093 6.46703 161.821 5.39827 119.056 7.15629C106.425 7.6672 93.8096 8.10033 81.3059 8.83517C80.1063 8.90088 78.9186 8.96927 77.7132 9.04704C65.9825 9.74704 50.6676 9.33804 39.0077 10.0729C28.7408 11.0491 20.7853 12.2734 10.9565 11.9395C8.34877 11.7089 5.57046 11.2918 4.00631 10.4483C0.592912 8.63671 -0.994646 6.97942 0.657637 5.59803C1.19566 5.14345 2.12469 4.67544 3.12428 4.25436C5.07649 3.47126 7.41963 2.85841 8.69266 2.80476C30.6661 1.73733 55.5945 1.53621 75.4516 1.34578C85.2533 1.25594 95.3734 1.13391 107.748 0.901913C136.333 0.569353 181.41 0.354781 210.025 0.0343211C235.027 -0.253986 260.096 1.33508 284.857 2.51647C294.271 2.96302 300.198 2.96301 308.639 3.08502C310.048 3.09306 311.641 3.1172 313.276 3.13866C321.617 3.26069 336.64 2.65995 341.491 3.81587C346.348 4.98384 349.738 5.10587 353.98 7.25287C354.204 9.37027 352.496 10.3478 350.329 10.7033C345.275 11.5494 340.645 12.4948 336.713 12.7858C332.109 13.1183 328.396 13.1317 327.643 12.3312C326.914 11.528 327.326 11.0305 328.055 10.663C329.325 10.0623 331.615 9.40518 333.664 8.96001L334.121 8.52542Z" fill="#FC1D4D" fill-opacity="0.8"/>
</svg>
